# xmcd CD database file
#
# Track frame offsets:
#	150
#	14922
#	33082
#	52782
#	71630
#	92775
#	111600
#	131320
#	147760
#	171570
#	192185
#	212092
#	230270
#
# Disc length: 3302 seconds
#
# Revision: 1
# Processed by: cddbd v1.5.1PL0 Copyright (c) Steve Scherf et al.
# Submitted via: CDex 1.51
#
DISCID=b90ce40d
DTITLE=愛内里菜 - PLAYGIRL
DYEAR=2004
DGENRE=JPop
TTITLE0=PLAYGIRL
TTITLE1=START
TTITLE2=Boom-Boom-Boom
TTITLE3=STEP UP!
TTITLE4=CONTROL ME, RESCUE ME
TTITLE5=wonderful danger
TTITLE6=LOVE-FORMATION
TTITLE7=NEVERENDING WINTER
TTITLE8=Dream × Dream
TTITLE9=MISS YOU
TTITLE10=Seductive Medicine
TTITLE11=V.I.P
TTITLE12=GIRLS PLAY
EXTD=YEAR: 2004
EXTT0=
EXTT1=
EXTT2=
EXTT3=
EXTT4=
EXTT5=
EXTT6=
EXTT7=
EXTT8=
EXTT9=
EXTT10=
EXTT11=
EXTT12=
PLAYORDER=
